HIERARCHY
ROOT Hips
{
	OFFSET -0.179506 -22.333345 2.821913
	CHANNELS 6 Xposition Yposition Zposition Zrotation Yrotation Xrotation 
	JOINT LeftUpLeg
	{
		OFFSET 6.951974 -9.140623 -0.681533
		CHANNELS 3 Zrotation Yrotation Xrotation
		JOINT LeftLeg
		{
			OFFSET 3.427654 -37.519855 -0.449580
			CHANNELS 3 Zrotation Yrotation Xrotation
			JOINT LeftFoot
			{
				OFFSET -1.359570 -39.796059 -4.369333
				CHANNELS 3 Zrotation Yrotation Xrotation
				JOINT LeftToe
				{
					OFFSET 2.635814 -5.579078 11.928840
					CHANNELS 3 Zrotation Yrotation Xrotation
					End Site
					{
						OFFSET 0.000000 0.000000 0.000000
					}
				}
			}
		}
	}
	JOINT RightUpLeg
	{
		OFFSET -6.767048 -9.052170 -0.431982
		CHANNELS 3 Zrotation Yrotation Xrotation
		JOINT RightLeg
		{
			OFFSET -3.829005 -38.256897 -0.885003
			CHANNELS 3 Zrotation Yrotation Xrotation
			JOINT RightFoot
			{
				OFFSET 1.577377 -39.841461 -4.231180
				CHANNELS 3 Zrotation Yrotation Xrotation
				JOINT RightToe
				{
					OFFSET -2.537174 -4.814398 12.334795
					CHANNELS 3 Zrotation Yrotation Xrotation
					End Site
					{
						OFFSET 0.000000 0.000000 0.000000
					}
				}
			}
		}
	}
	JOINT Spine
	{
		OFFSET -0.253288 10.896323 -2.669631
		CHANNELS 3 Zrotation Yrotation Xrotation
		JOINT Spine1
		{
			OFFSET 0.548704 13.518043 0.109247
			CHANNELS 3 Zrotation Yrotation Xrotation
			JOINT Spine2
			{
				OFFSET 0.145701 5.292222 2.542457
				CHANNELS 3 Zrotation Yrotation Xrotation
				JOINT Neck
				{
					OFFSET -0.277840 21.387037 -4.285703
					CHANNELS 3 Zrotation Yrotation Xrotation
					JOINT Head
					{
						OFFSET 0.515184 6.496960 5.134897
						CHANNELS 3 Zrotation Yrotation Xrotation
						End Site
						{
							OFFSET 0.000000 0.000000 0.000000
						}
					}
				}
				JOINT LeftShoulder
				{
					OFFSET 7.884473 12.174932 -3.408961
					CHANNELS 3 Zrotation Yrotation Xrotation
					JOINT LeftArm
					{
						OFFSET 9.097692 3.046888 -0.886815
						CHANNELS 3 Zrotation Yrotation Xrotation
						JOINT LeftForeArm
						{
							OFFSET 25.961220 -1.277207 -2.745643
							CHANNELS 3 Zrotation Yrotation Xrotation
							JOINT LeftHand
							{
								OFFSET 24.923361 0.898606 -0.117091
								CHANNELS 3 Zrotation Yrotation Xrotation
								End Site
								{
									OFFSET 0.000000 0.000000 0.000000
								}
							}
						}
					}
				}
				JOINT RightShoulder
				{
					OFFSET -8.175920 11.883285 -3.861528
					CHANNELS 3 Zrotation Yrotation Xrotation
					JOINT RightArm
					{
						OFFSET -9.601238 3.255117 -0.914307
						CHANNELS 3 Zrotation Yrotation Xrotation
						JOINT RightForeArm
						{
							OFFSET -25.374195 -1.332924 -2.140099
							CHANNELS 3 Zrotation Yrotation Xrotation
							JOINT RightHand
							{
								OFFSET -25.529810 0.777228 -0.555919
								CHANNELS 3 Zrotation Yrotation Xrotation
								End Site
								{
									OFFSET 0.000000 0.000000 0.000000
								}
							}
						}
					}
				}
			}
		}
	}
}
MOTION
Frames: 15
Frame Time: 0.033333
3.665115 -21.206573 94.156738 157.902446 3.566487 84.917515 2.840130 -0.900335 4.526272 -2.992462 -10.048792 14.601731 2.953926 14.592948 -20.143835 nan nan nan -8.691145 0.525405 -3.909926 2.880524 0.258796 32.053735 1.773022 -4.065526 -21.382067 nan nan nan -0.716356 3.657076 9.460205 4.535805 -1.776078 17.963886 1.924126 -2.492435 -5.863990 -5.419693 26.353918 -2.282449 -4.584351 14.157445 -12.913240 -19.153013 4.113901 2.111303 -60.237503 0.720073 15.654325 16.394045 -58.946673 0.877873 -10.399204 -28.670319 -2.898870 25.547530 -3.105640 1.052583 53.601701 -7.964735 13.908407 -13.931705 42.192669 -3.469942 8.272829 23.299433 -11.389796 
2.865988 -20.249168 94.312920 159.324868 3.772557 84.888483 2.321684 -1.435372 5.227431 -2.933849 -11.052655 13.947429 3.134504 14.602085 -19.933361 nan nan nan -7.518963 1.100904 -4.228444 2.838856 0.389634 32.921620 1.575252 -4.291553 -20.870190 nan nan nan -0.920793 3.476978 10.116480 4.448171 -1.551718 17.499342 1.922786 -2.444236 -5.658157 -5.259542 25.718633 -2.755438 -4.075405 13.269441 -12.787858 -18.848899 4.344411 1.616689 -60.194887 0.621379 15.583449 16.820113 -57.152166 -0.100580 -11.150526 -28.843380 -2.623440 25.652389 -3.120006 0.789681 53.463705 -8.014788 14.240079 -13.740951 42.077769 -2.704557 8.982014 23.033277 -10.704866 
2.059050 -19.311619 94.457214 161.060292 3.899493 85.099778 1.757804 -2.085411 5.537504 -2.946678 -12.160851 13.508792 3.383067 14.629938 -19.742629 nan nan nan -6.466634 1.464454 -4.713077 2.860349 0.500383 33.707631 1.577606 -4.613057 -20.125333 nan nan nan -1.244316 3.282595 10.475600 4.427838 -1.533072 17.151742 1.984424 -2.392475 -5.533073 -5.176416 24.706169 -3.098648 -3.506585 12.649377 -12.750048 -18.757749 4.259030 1.356575 -59.964173 0.689472 15.557009 17.608862 -56.072957 -0.945144 -11.160222 -28.430739 -2.975880 25.673123 -3.075084 0.488594 53.447113 -8.352228 14.345510 -13.504375 42.073313 -1.993765 9.303832 22.804324 -10.596217 
1.252371 -18.364189 94.604836 162.975190 4.006973 85.359827 1.190928 -2.700315 5.790433 -2.918439 -13.292067 13.103471 3.400644 14.457758 -19.446780 nan nan nan -5.491473 1.656797 -5.159741 2.894568 0.519517 34.258835 1.628557 -4.846521 -19.533274 nan nan nan -1.491365 3.128516 10.792127 4.407763 -1.583974 16.763148 2.113894 -2.542564 -5.368835 -5.214325 23.499282 -3.198716 -2.975721 12.103469 -13.036519 -18.846916 3.955369 1.412102 -59.643632 0.784782 15.186602 18.426645 -55.416767 -1.463537 -11.090264 -28.328925 -2.884628 25.501962 -2.906533 0.306949 53.628957 -8.760565 14.060501 -13.135144 42.027632 -1.268325 9.702379 22.818083 -10.633767 
0.415218 -17.413549 94.742966 165.061304 4.088647 85.773074 0.530196 -3.397615 5.906715 -2.807864 -14.349209 12.741919 3.388938 14.399871 -19.184696 nan nan nan -4.627666 1.793734 -5.700715 2.901760 0.400108 34.530987 1.524341 -5.135550 -19.050614 nan nan nan -1.673010 2.966257 10.866288 4.370521 -1.739874 16.655101 2.233924 -2.826299 -5.292226 -5.221056 22.320979 -3.428617 -2.445529 11.600996 -13.367225 -18.983264 3.698123 1.295974 -59.266472 0.878772 14.847299 19.215866 -54.825897 -2.243645 -11.374140 -28.307926 -2.293719 25.399839 -2.754961 0.012846 53.708115 -9.193998 13.963804 -12.869429 42.007225 -0.809400 10.229340 22.697129 -10.699795 
-0.398858 -16.465891 94.882545 167.315627 4.189349 86.358254 -0.006341 -4.034517 5.855266 -2.733181 -15.260227 12.420021 3.407255 14.308786 -18.964860 nan nan nan -3.767373 1.867015 -6.431385 2.890289 0.173811 34.655291 1.428250 -5.478260 -18.374548 nan nan nan -1.874030 2.693137 10.599121 4.382159 -2.026449 16.900671 2.288008 -3.010010 -5.416688 -5.143948 21.038160 -3.673334 -1.838113 11.090438 -13.641022 -19.198574 3.501490 1.206415 -58.689909 0.879104 14.641129 20.097910 -54.461304 -3.359817 -11.745030 -27.518967 -1.710645 25.436023 -2.672742 -0.144021 53.755795 -9.497466 13.982571 -12.767588 41.835635 -0.600812 10.707079 22.459214 -10.551312 
-1.168070 -15.501426 95.026459 169.548675 4.435015 86.783453 -0.219840 -4.350058 6.153200 -2.681037 -16.025793 11.810095 3.457953 14.082868 -18.649693 nan nan nan -2.740673 1.945763 -6.966261 3.005118 0.140548 34.517260 1.398361 -5.859287 -17.528295 nan nan nan -1.992661 2.444847 10.535741 4.497448 -2.212705 17.046642 2.387753 -3.150787 -5.505798 -4.997993 19.678801 -3.820941 -1.292966 10.533695 -13.884681 -19.437107 3.238561 1.226263 -58.067757 0.702692 14.470968 20.572569 -54.242138 -4.133121 -11.634786 -26.826209 -1.628520 25.366963 -2.718828 -0.401225 53.817815 -9.861683 13.901979 -12.419610 41.643603 -0.104389 10.862902 22.267942 -10.799909 
-1.929071 -14.556469 95.159187 171.624426 4.714239 87.036693 -0.326460 -4.460530 6.743261 -2.614443 -16.435028 11.013242 3.486626 13.717195 -18.310186 nan nan nan -1.651934 2.103393 -7.485266 3.050627 0.185930 34.459053 1.471399 -6.086218 -16.553939 nan nan nan -2.030644 2.178480 10.859917 4.601326 -2.253031 16.958503 2.491575 -3.345106 -5.504535 -4.806304 18.758278 -4.016802 -0.850561 9.743189 -14.114442 -19.479992 3.130346 1.154906 -57.664720 0.344495 14.285063 20.798480 -53.999497 -4.844080 -12.046331 -26.687807 -1.117466 25.128963 -2.771946 -0.576796 53.987681 -10.119108 13.873999 -12.019794 41.487761 0.427486 11.166938 22.124310 -11.184746 
-2.777879 -13.659533 95.271317 173.733827 4.871255 87.444270 -0.645681 -4.685984 7.092282 -2.551006 -16.688746 10.330499 3.571511 13.600797 -17.935119 nan nan nan -0.862094 2.325160 -8.284406 3.168321 0.014823 34.375310 1.367331 -6.237463 -15.367144 nan nan nan -1.976738 1.765490 11.104207 4.634052 -2.335608 16.924758 2.492239 -3.505523 -5.569541 -4.694859 17.757671 -4.155411 -0.476197 8.967368 -14.527601 -19.552993 3.061640 1.013942 -57.323250 -0.009818 14.217086 21.334173 -53.789992 -5.805210 -12.462491 -26.412987 -0.881097 24.760727 -2.761987 -0.685506 54.316808 -10.271626 13.914638 -11.755567 41.129600 0.834141 11.379792 21.988932 -11.668980 
-3.667128 -12.776648 95.357605 175.902354 4.927817 87.936597 -1.119931 -4.891444 7.302116 -2.433640 -16.813199 9.779719 3.597749 13.611124 -17.634306 nan nan nan -0.314398 2.544756 -9.200773 3.405746 -0.091941 34.205230 1.030319 -6.027224 -14.238881 nan nan nan -1.893414 1.305616 11.316505 4.603376 -2.479733 16.761994 2.441759 -3.708083 -5.539684 -4.516306 16.621868 -4.390733 -0.030236 8.176119 -14.886603 -19.612087 3.028425 0.819320 -56.993021 -0.407896 14.240817 21.698374 -53.577328 -6.484150 -12.364764 -26.444666 -0.845906 24.508043 -2.788786 -0.785331 54.482922 -10.396350 13.952716 -11.351145 40.757283 1.276256 11.445462 21.915135 -11.829543 
-4.533019 -11.862020 95.405098 177.994403 4.831040 88.528766 -1.736392 -5.010017 7.518150 -2.303571 -16.903510 9.149022 3.676503 13.823507 -17.378729 nan nan nan -0.053037 2.736841 -10.348329 3.563220 -0.332642 34.122756 0.878178 -5.910330 -13.384423 nan nan nan -2.007716 0.953331 11.170701 4.593410 -2.637048 16.895199 2.418642 -3.868306 -5.618572 -4.345585 15.527235 -4.409963 0.435964 7.413527 -15.401530 -19.625347 2.859980 0.744309 -56.710252 -0.914805 14.193405 22.079256 -53.443373 -7.194791 -12.416548 -26.364752 -0.491281 24.425393 -2.785330 -0.812783 54.573941 -10.672288 13.871280 -11.018306 40.502473 1.513534 11.515223 21.877668 -11.890298 
-5.406554 -10.936050 95.404182 -179.917149 4.686975 89.242464 -2.384351 -5.000956 7.587747 -2.166785 -16.866556 8.665984 3.646935 14.190076 -17.198835 nan nan nan 0.040009 2.825798 -11.757548 3.645361 -0.846578 34.083450 0.925775 -6.045090 -12.419188 nan nan nan -2.150581 0.545767 10.738736 4.599854 -2.838097 17.303890 2.371817 -3.941924 -5.857520 -4.205523 14.431683 -4.353281 0.913111 6.779013 -15.764568 -19.727296 2.625093 0.753128 -56.371431 -1.338238 14.094531 22.709187 -53.612189 -8.018919 -12.580689 -26.102760 0.161119 24.350863 -2.693218 -0.719211 54.614997 -11.046448 13.745994 -10.708176 40.348815 1.667971 11.631662 21.745353 -11.979898 
-6.274503 -10.038943 95.381279 -177.770243 4.662443 89.929016 -2.874684 -4.953474 7.479909 -2.115740 -16.733932 8.631614 3.586374 14.603519 -17.145647 nan nan nan 0.257872 2.986355 -13.138628 3.828994 -1.330467 33.937304 1.113755 -6.103716 -11.406219 nan nan nan -2.118877 0.163720 10.516453 4.647867 -3.016202 17.513759 2.389740 -4.114992 -6.064630 -4.061214 13.286598 -4.368169 1.328625 6.162180 -16.135254 -19.961984 2.370284 0.604837 -56.022005 -1.709029 14.021700 23.411892 -53.800185 -8.704579 -12.851912 -26.133527 0.684506 24.227474 -2.652169 -0.905451 54.517428 -11.541337 13.629063 -10.109098 40.160343 2.128723 12.064929 21.715886 -12.023404 
-7.158233 -9.179501 95.304489 -175.765240 4.641000 90.530068 -3.394559 -4.748415 7.299463 -2.092064 -16.401855 8.921623 3.433437 15.050183 -17.546704 nan nan nan 0.365262 3.243669 -14.509535 4.156368 -1.863931 33.762351 1.473906 -6.322548 -11.093271 nan nan nan -1.961585 -0.161745 10.555693 4.638327 -3.031512 17.336872 2.353436 -4.340703 -6.023838 -3.908393 12.143237 -4.660246 1.750480 5.491229 -16.258615 -20.027158 2.258852 0.332852 -55.800558 -2.340517 14.103444 23.686546 -53.933367 -9.007919 -13.436253 -26.158093 0.788346 24.053363 -2.797706 -1.253124 54.491390 -11.939399 13.509280 -9.410501 39.792427 2.850180 12.355414 21.643878 -11.745554 
-8.057533 -8.341427 95.187012 -173.858890 4.640640 91.068250 -3.906681 -4.506493 7.011813 -2.224181 -15.946526 9.667938 3.051472 15.660809 -18.229947 nan nan nan 0.411590 3.464664 -15.965234 4.418681 -2.571613 33.553599 1.089309 -6.813280 -10.925289 nan nan nan -1.752152 -0.496717 10.709240 4.629505 -3.047428 17.168129 2.316579 -4.484304 -6.059608 -3.757803 10.983853 -4.859301 2.147061 4.870979 -16.369335 -20.042202 2.253145 0.212370 -55.705767 -3.105131 14.146895 24.142941 -54.283030 -9.814070 -14.267451 -25.735648 1.296644 23.781804 -2.970422 -1.401851 54.499739 -12.212724 13.391334 -8.803461 39.432762 3.382252 12.658554 21.543418 -11.331700 
